<svg width="170" height="20" viewBox="0 0 170 20" fill="none" xmlns="http://www.w3.org/2000/svg">
<path fill-rule="evenodd" clip-rule="evenodd" d="M120.346 0.34659C120.246 0.245779 120.195 0.195373 120.139 0.155326C120.036 0.0814367 119.917 0.0321748 119.791 0.0113089C119.724 0 119.652 0 119.51 0H93.8233C93.6808 0 93.6095 0 93.5415 0.0113089C93.4162 0.0321748 93.2972 0.0814367 93.1938 0.155326C93.1378 0.195373 93.0874 0.245779 92.9866 0.34659L87.0131 6.32007C86.9123 6.42089 86.8619 6.47129 86.8218 6.52733C86.7479 6.63073 86.6987 6.74966 86.6778 6.87502C86.6665 6.94296 86.6665 7.01425 86.6665 7.15682V12.8432C86.6665 12.9857 86.6665 13.057 86.6778 13.125C86.6987 13.2503 86.7479 13.3693 86.8218 13.4727C86.8619 13.5287 86.9123 13.5791 87.0131 13.6799L92.9866 19.6534C93.0874 19.7542 93.1378 19.8046 93.1938 19.8447C93.2972 19.9186 93.4162 19.9678 93.5415 19.9887C93.6095 20 93.6808 20 93.8233 20H119.51C119.652 20 119.724 20 119.791 19.9887C119.917 19.9678 120.036 19.9186 120.139 19.8447C120.195 19.8046 120.246 19.7542 120.346 19.6534L126.32 13.6799C126.421 13.5791 126.471 13.5287 126.511 13.4727C126.585 13.3693 126.634 13.2503 126.655 13.125C126.667 13.057 126.667 12.9857 126.667 12.8432V7.15682C126.667 7.01425 126.667 6.94296 126.655 6.87502C126.634 6.74966 126.585 6.63073 126.511 6.52733C126.471 6.47129 126.421 6.42089 126.32 6.32007L120.346 0.34659ZM120 7.85C120 7.52419 120 7.36129 119.955 7.23007C119.871 6.98641 119.68 6.79502 119.436 6.71159C119.305 6.66666 119.142 6.66666 118.817 6.66666H94.5165C94.1907 6.66666 94.0278 6.66666 93.8966 6.71159C93.6529 6.79502 93.4615 6.98641 93.3781 7.23007C93.3332 7.36129 93.3332 7.52419 93.3332 7.85V12.15C93.3332 12.4758 93.3332 12.6387 93.3781 12.7699C93.4615 13.0136 93.6529 13.205 93.8966 13.2884C94.0278 13.3333 94.1907 13.3333 94.5165 13.3333H118.817C119.142 13.3333 119.305 13.3333 119.436 13.2884C119.68 13.205 119.871 13.0136 119.955 12.7699C120 12.6387 120 12.4758 120 12.15V7.85Z" fill="#D9D9D9"/>
<path fill-rule="evenodd" clip-rule="evenodd" d="M32.8432 2.13555e-06C32.9857 2.12852e-06 33.057 2.47324e-06 33.125 0.0113114C33.2503 0.0321773 33.3693 0.0814393 33.4727 0.155329C33.5287 0.195376 33.5791 0.245782 33.6799 0.346593L39.6534 6.32008C39.7542 6.42089 39.8046 6.4713 39.8447 6.52734C39.9186 6.63073 39.9678 6.74966 39.9887 6.87502C40 6.94297 40 7.01425 40 7.15682L40 12.8432C40 12.9857 40 13.057 39.9887 13.125C39.9678 13.2503 39.9186 13.3693 39.8447 13.4727C39.8046 13.5287 39.7542 13.5791 39.6534 13.6799L33.6799 19.6534C33.5791 19.7542 33.5287 19.8046 33.4727 19.8447C33.3693 19.9186 33.2503 19.9678 33.125 19.9887C33.057 20 32.9857 20 32.8432 20L1.18334 20C0.857533 20 0.694632 20 0.563405 19.9551C0.319749 19.8716 0.128354 19.6803 0.0449318 19.4366C2.91454e-06 19.3054 2.80907e-06 19.1425 2.59934e-06 18.8167L-1.68738e-07 14.5167C-3.7847e-07 14.1909 -4.82356e-07 14.028 0.0449283 13.8967C0.12835 13.6531 0.319745 13.4617 0.563402 13.3783C0.694628 13.3333 0.85753 13.3333 1.18333 13.3333L32.15 13.3333C32.4758 13.3333 32.6387 13.3333 32.7699 13.2884C33.0136 13.205 33.205 13.0136 33.2884 12.7699C33.3333 12.6387 33.3333 12.4758 33.3333 12.15L33.3333 7.85C33.3333 7.5242 33.3333 7.3613 33.2884 7.23007C33.205 6.98641 33.0136 6.79502 32.7699 6.7116C32.6387 6.66667 32.4758 6.66667 32.15 6.66667L1.18333 6.66667C0.857529 6.66667 0.694627 6.66667 0.563401 6.62174C0.319744 6.53832 0.12835 6.34693 0.0449275 6.10327C-1.37041e-06 5.97204 -1.33613e-06 5.80914 -1.26881e-06 5.48334L-3.80324e-07 1.18334C-3.13005e-07 0.857534 -2.77086e-07 0.694633 0.0449286 0.563407C0.128351 0.31975 0.319745 0.128355 0.563402 0.0449332C0.694628 4.33512e-06 0.857529 3.64783e-06 1.18333 3.63177e-06L32.8432 2.13555e-06Z" fill="#D9D9D9"/>
<path fill-rule="evenodd" clip-rule="evenodd" d="M43.3335 7.15682C43.3335 7.01425 43.3335 6.94296 43.3448 6.87502C43.3657 6.74966 43.4149 6.63073 43.4888 6.52733C43.5289 6.47129 43.5793 6.42089 43.6801 6.32007L49.6536 0.34659C49.7544 0.245779 49.8048 0.195373 49.8608 0.155326C49.9642 0.0814367 50.0832 0.0321748 50.2085 0.0113089C50.2765 0 50.3477 0 50.4903 0H76.1767C76.3192 0 76.3905 0 76.4585 0.0113089C76.5838 0.0321748 76.7028 0.0814367 76.8062 0.155326C76.8622 0.195373 76.9126 0.245779 77.0134 0.34659L82.9869 6.32007C83.0877 6.42089 83.1381 6.47129 83.1782 6.52733C83.2521 6.63073 83.3013 6.74966 83.3222 6.87502C83.3335 6.94296 83.3335 7.01425 83.3335 7.15682V18.8167C83.3335 19.1425 83.3335 19.3054 83.2886 19.4366C83.2051 19.6802 83.0138 19.8716 82.7701 19.9551C82.6389 20 82.476 20 82.1502 20H77.8502C77.5244 20 77.3615 20 77.2302 19.9551C76.9866 19.8716 76.7952 19.6802 76.7118 19.4366C76.6668 19.3054 76.6668 19.1425 76.6668 18.8167V13.3333V7.85C76.6668 7.52419 76.6668 7.36129 76.6219 7.23007C76.5385 6.98641 76.3471 6.79502 76.1034 6.71159C75.9722 6.66666 75.8093 6.66666 75.4835 6.66666H70.0002H51.1835C50.8577 6.66666 50.6948 6.66666 50.5636 6.71159C50.3199 6.79502 50.1285 6.98641 50.0451 7.23007C50.0002 7.36129 50.0002 7.52419 50.0002 7.85V12.15C50.0002 12.4758 50.0002 12.6387 50.0451 12.7699C50.1285 13.0136 50.3199 13.205 50.5636 13.2884C50.6948 13.3333 50.8577 13.3333 51.1835 13.3333H68.8168C69.1426 13.3333 69.3055 13.3333 69.4368 13.3783C69.6804 13.4617 69.8718 13.6531 69.9552 13.8967C70.0002 14.028 70.0002 14.1909 70.0002 14.5167V18.8167C70.0002 19.1425 70.0002 19.3054 69.9552 19.4366C69.8718 19.6802 69.6804 19.8716 69.4368 19.9551C69.3055 20 69.1426 20 68.8168 20H44.5168C44.191 20 44.0281 20 43.8969 19.9551C43.6532 19.8716 43.4618 19.6802 43.3784 19.4366C43.3335 19.3054 43.3335 19.1425 43.3335 18.8167V7.15682Z" fill="#D9D9D9"/>
<path fill-rule="evenodd" clip-rule="evenodd" d="M145.483 13.3333C145.809 13.3333 145.972 13.3333 146.103 13.3783C146.347 13.4617 146.538 13.6531 146.622 13.8967C146.667 14.028 146.667 14.1909 146.667 14.5167V18.8167C146.667 19.1425 146.667 19.3054 146.712 19.4366C146.795 19.6802 146.986 19.8716 147.23 19.9551C147.361 20 147.524 20 147.85 20H152.15C152.476 20 152.639 20 152.77 19.9551C153.014 19.8716 153.205 19.6802 153.288 19.4366C153.333 19.3054 153.333 19.1425 153.333 18.8167V14.5167C153.333 14.1909 153.333 14.028 153.378 13.8967C153.462 13.6531 153.653 13.4617 153.897 13.3783C154.028 13.3333 154.191 13.3333 154.517 13.3333H168.817C169.142 13.3333 169.305 13.3333 169.437 13.2884C169.68 13.205 169.872 13.0136 169.955 12.7699C170 12.6387 170 12.4758 170 12.15V7.85C170 7.52419 170 7.36129 169.955 7.23007C169.872 6.98641 169.68 6.79502 169.437 6.71159C169.305 6.66666 169.142 6.66666 168.817 6.66666H154.517C154.191 6.66666 154.028 6.66666 153.897 6.62174C153.653 6.53831 153.462 6.34692 153.378 6.10326C153.333 5.97204 153.333 5.80914 153.333 5.48333V1.18333C153.333 0.85753 153.333 0.694629 153.288 0.563402C153.205 0.319746 153.014 0.128351 152.77 0.0449289C152.639 0 152.476 0 152.15 0H147.85C147.524 0 147.361 0 147.23 0.0449289C146.986 0.128351 146.795 0.319746 146.712 0.563402C146.667 0.694629 146.667 0.85753 146.667 1.18333V5.48333C146.667 5.80913 146.667 5.97204 146.622 6.10326C146.538 6.34692 146.347 6.53831 146.103 6.62174C145.972 6.66666 145.809 6.66666 145.483 6.66666H131.183C130.858 6.66666 130.695 6.66666 130.563 6.71159C130.32 6.79502 130.128 6.98641 130.045 7.23007C130 7.36129 130 7.52419 130 7.85V12.15C130 12.4758 130 12.6387 130.045 12.7699C130.128 13.0136 130.32 13.205 130.563 13.2884C130.695 13.3333 130.858 13.3333 131.183 13.3333H145.483Z" fill="#D9D9D9"/>
</svg>
